HIERARCHY
ROOT RootJoint
{
    OFFSET   0.000000   0.000000   0.000000
    CHANNELS 6 Xposition Yposition Zposition Xrotation Yrotation Zrotation
    JOINT pelvis_lowerback
    {
        OFFSET   0.000000   0.093605   0.000000
        CHANNELS 3 Xrotation Yrotation Zrotation
        JOINT lowerback_torso
        {
            OFFSET   0.000000   0.100000   0.000000
            CHANNELS 3 Xrotation Yrotation Zrotation
            JOINT torso_head
            {
                OFFSET   0.000000   0.282350   0.000000
                CHANNELS 3 Xrotation Yrotation Zrotation
                End Site
                {
                    OFFSET   0.000000   0.192650   0.000000
                }
            }
            JOINT rTorso_Clavicle
            {
                OFFSET  -0.001000   0.157500   0.000000
                CHANNELS 3 Xrotation Yrotation Zrotation
                JOINT rShoulder
                {
                    OFFSET  -0.117647   0.000000   0.000000
                    CHANNELS 3 Xrotation Yrotation Zrotation
                    JOINT rElbow
                    {
                        OFFSET  -0.245000   0.000000   0.000000
                        CHANNELS 3 Xrotation Yrotation Zrotation
                        JOINT rWrist
                        {
                            OFFSET  -0.240000   0.000000   0.000000
                            CHANNELS 3 Xrotation Yrotation Zrotation
                            End Site
                            {
                                OFFSET  -0.116353  -0.002500   0.000000
                            }
                        }
                    }
                }
            }
            JOINT lTorso_Clavicle
            {
                OFFSET   0.001000   0.157500   0.000000
                CHANNELS 3 Xrotation Yrotation Zrotation
                JOINT lShoulder
                {
                    OFFSET   0.117647   0.000000   0.000000
                    CHANNELS 3 Xrotation Yrotation Zrotation
                    JOINT lElbow
                    {
                        OFFSET   0.245000   0.000000   0.000000
                        CHANNELS 3 Xrotation Yrotation Zrotation
                        JOINT lWrist
                        {
                            OFFSET   0.240000   0.000000   0.000000
                            CHANNELS 3 Xrotation Yrotation Zrotation
                            End Site
                            {
                                OFFSET   0.116353  -0.002500   0.000000
                            }
                        }
                    }
                }
            }
        }
    }
    JOINT rHip
    {
        OFFSET  -0.100000  -0.051395   0.000000
        CHANNELS 3 Xrotation Yrotation Zrotation
        JOINT rKnee
        {
            OFFSET   0.000000  -0.410000   0.000000
            CHANNELS 3 Xrotation Yrotation Zrotation
            JOINT rAnkle
            {
                OFFSET   0.000000  -0.390000   0.000000
                CHANNELS 3 Xrotation Yrotation Zrotation
                JOINT rToeJoint
                {
                    OFFSET   0.000000  -0.050000   0.130000
                    CHANNELS 3 Xrotation Yrotation Zrotation
                    End Site
                    {
                        OFFSET  -0.010000   0.002000   0.060000
                    }
                }
            }
        }
    }
    JOINT lHip
    {
        OFFSET   0.100000  -0.051395   0.000000
        CHANNELS 3 Xrotation Yrotation Zrotation
        JOINT lKnee
        {
            OFFSET   0.000000  -0.410000   0.000000
            CHANNELS 3 Xrotation Yrotation Zrotation
            JOINT lAnkle
            {
                OFFSET   0.000000  -0.390000   0.000000
                CHANNELS 3 Xrotation Yrotation Zrotation
                JOINT lToeJoint
                {
                    OFFSET   0.000000  -0.050000   0.130000
                    CHANNELS 3 Xrotation Yrotation Zrotation
                    End Site
                    {
                        OFFSET   0.010000   0.002000   0.060000
                    }
                }
            }
        }
    }
}
MOTION
Frames: 12
Frame Time:   0.008333
 -1.666802   0.838473   4.148750  -1.923663 -14.510474   2.894277  16.401909  -5.238224   4.713763   3.857020  -5.522641   7.826991   1.467710   5.161166  -1.686939   0.323510   3.417252   0.959876  -4.552386  13.719913  52.115457 179.982166  81.488679 179.992951  -1.574950   3.790836  -2.660598  -5.339571 -11.334076   5.371437 -22.308321  -5.793422 -46.803283 179.993140 -81.958149 179.988103  -1.807232  -6.275245  12.777758 -16.580219   1.158287 -23.088790  40.686902   0.003093   0.001527 -24.600126   3.123972   3.341040   2.754859   0.001360   0.001173  -5.224378  -1.113312  26.037013  21.580241   0.004760   0.006371   3.280752  -0.075466  -8.991253 -13.395043  -0.048781  -0.059180
 -1.661166   0.836834   4.148835  -2.103112 -12.864267   2.840164  16.425375  -5.265961   4.742617   3.998651  -5.856021   8.004844   1.398423   4.948141  -1.633993   0.499891   3.197773   1.149820  -4.277147  13.125504  52.751095 179.994626  81.719003 179.983927  -1.649600   3.175046  -2.765824  -5.352359 -11.722399   5.128000 -22.086546  -6.748815 -47.743346 179.990715 -81.441643 179.981101  -1.712824  -6.118852  12.594080 -15.816218   0.719250 -23.522325  40.545886   0.001438  -0.000026 -24.749113   1.973619   3.224714   2.772942   0.001162   0.000955  -6.135761  -1.758172  25.707876  22.340308   0.008140   0.012882   2.280590  -0.685605  -8.753190 -15.970937  -0.043965  -0.061052
 -1.655623   0.835475   4.149175  -2.373195 -11.102345   2.849749  16.385602  -5.170361   4.753763   4.134472  -6.104668   8.136671   1.336435   4.750121  -1.575668   0.618274   3.055181   1.324039  -4.069047  12.614651  53.366160 -179.993162  81.900604 179.974901  -1.720269   2.713729  -2.891834  -5.279297 -12.123414   4.789179 -21.824791  -7.688226 -48.735199 179.996435 -80.919333 179.983070  -1.599614  -6.125078  12.128708 -14.885628   0.270121 -24.013309  40.413753   0.000115  -0.001316 -24.807145   0.828056   3.037299   2.787229   0.000998   0.000792  -7.066557  -2.409739  25.255483  23.182645   0.011836   0.019724   1.376313  -1.347505  -8.564280 -17.950686  -0.039527  -0.061402
 -1.650284   0.834235   4.149686  -2.679892  -9.286288   2.886565  16.284983  -4.984435   4.746232   4.233404  -6.251798   8.233884   1.274618   4.569082  -1.516370   0.692831   2.978182   1.485737  -3.909326  12.175769  53.951203 -179.982058  82.055311 179.966641  -1.784362   2.371008  -2.971423  -5.165958 -12.481359   4.427412 -21.550938  -8.563619 -49.691361 -179.992104 -80.430594 179.992471  -1.489453  -6.152636  11.558221 -13.889975  -0.210613 -24.500139  40.312043  -0.000717  -0.002085 -24.794454  -0.276240   2.825947   2.414727  -0.001055  -0.000346  -7.977857  -3.032931  24.744916  24.008376   0.015013   0.025380   0.545009  -2.004262  -8.408199 -19.598776  -0.035147  -0.060958
 -1.645197   0.833028   4.150319  -2.997682  -7.411928   2.934146  16.127475  -4.733160   4.720880   4.283634  -6.311906   8.306806   1.212539   4.402092  -1.458307   0.734531   2.946615   1.634147  -3.785497  11.792410  54.502089 -179.972457  82.190543 179.959547  -1.842683   2.109603  -3.013944  -5.037983 -12.782455   4.077929 -21.281713  -9.367537 -50.583811 -179.977959 -79.977728 -179.993953  -1.387642  -6.162549  10.989440 -12.851223  -0.710061 -24.951636  40.244086  -0.001130  -0.002393 -24.736503  -1.312401   2.608346   1.850301  -0.003707  -0.002431  -8.875251  -3.627847  24.204353  24.787255   0.017492   0.029702  -0.227556  -2.639370  -8.278845 -21.046332  -0.030933  -0.060425
 -1.640813   0.832294   4.150819  -3.322634  -5.451790   3.074207  15.953351  -4.433396   4.564178   4.293031  -6.300605   8.339184   1.143500   4.246468  -1.401806   0.758228   2.955053   1.821428  -3.685616  11.456990  55.040832 -179.963037  82.317951 179.952257  -1.896126   1.889742  -3.032203  -4.907555 -13.029047   3.744672 -21.022859 -10.099850 -51.398271 -179.962688 -79.563860 -179.978344  -1.291748  -6.152675  10.459157 -11.757671  -1.220060 -25.401064  40.167830  -0.001533  -0.002798 -24.577270  -2.295858   2.363367   1.039947  -0.007044  -0.006166  -9.826501  -4.230655  23.636520  25.624143   0.019543   0.034528  -1.236917  -3.256888  -8.321756 -19.050976  -0.020209  -0.030302
 -1.636913   0.831689   4.151363  -3.640058  -3.451457   3.227531  15.734879  -4.075776   4.390122   4.264898  -6.218576   8.324684   1.081363   4.102992  -1.356029   0.763422   2.986834   1.979227  -3.606542  11.161245  55.543319 -179.955611  82.429206 179.946724  -1.946884   1.712751  -3.015372  -4.779539 -13.218703   3.446892 -20.777545 -10.764860 -52.143618 -179.948335 -79.179762 -179.962924  -1.204398  -6.117715  10.004550 -10.646442  -1.750032 -25.784251  40.107350  -0.001727  -0.002968 -24.372691  -3.211387   2.123292   0.056046  -0.010361  -0.011196 -10.764312  -4.805417  23.052883  26.361839   0.020622   0.037319  -2.012976  -3.868652  -8.317732 -17.230899  -0.011905  -0.007495
 -1.632908   0.832289   4.152143  -3.959684  -1.227901   3.447718  15.366770  -3.536760   4.315026   4.266728  -6.143670   8.272166   1.177842   3.510857  -1.238867   0.896052   3.140157   1.936123  -3.860273  10.815930  55.956682 179.988566  82.115288 -179.995504  -2.088923   1.045035  -3.081397  -4.608276 -13.369894   3.185222 -20.262617 -11.652784 -53.276404 -179.922474 -78.472145 -179.939352  -1.190800  -5.902857   9.725042  -9.524000  -2.535509 -26.120493  40.010773  -0.002113  -0.003583 -23.554275  -4.685086   1.841338  -1.551349  -0.015932  -0.011499 -11.411233  -5.710590  22.322518  26.515832   0.017466   0.031541  -2.379698  -4.897147  -7.977032 -16.080988  -0.008162  -0.003036
 -1.628923   0.833291   4.153086  -4.260314   1.124730   3.711654  14.906716  -2.936690   4.262561   4.210916  -6.000321   8.186825   1.288502   2.945460  -1.109157   0.929462   3.335294   1.788485  -4.181463  10.530090  56.303934 179.936900  81.762432 -179.942782  -2.209072   0.640405  -3.174681  -4.379743 -13.492292   2.921995 -19.738677 -12.513908 -54.381405 -179.897933 -77.772961 -179.915732  -1.165224  -5.830854   9.248156  -8.354561  -3.357024 -26.417763  39.879890  -0.002748  -0.004640 -22.535322  -6.117807   1.507839  -3.556123  -0.024287  -0.015935 -12.058309  -6.569345  21.502126  26.481294   0.013752   0.024814  -2.528791  -5.898449  -7.593112 -15.032247  -0.005483   0.001576
 -1.625249   0.834150   4.154206  -4.523458   3.625638   4.015542  14.352021  -2.314369   4.164728   4.065946  -5.801706   8.069708   1.392974   2.419082  -0.977630   0.906521   3.547967   1.597403  -4.530828  10.282617  56.607041 179.894722  81.406308 -179.900184  -2.309517   0.419497  -3.289002  -4.146406 -13.569290   2.698453 -19.238876 -13.315589 -55.397857 -179.874979 -77.115526 -179.891948  -1.138096  -5.785472   8.723896  -7.058531  -4.151082 -26.678443  39.724362  -0.003655  -0.006094 -21.278688  -7.423506   1.137523  -6.993902  -0.043371  -0.037110 -12.780134  -7.379234  20.621586  26.373414   0.010272   0.018397  -2.623739  -6.851536  -7.229507 -13.894890  -0.003221   0.007697
 -1.621798   0.834933   4.155455  -4.776746   6.219888   4.309102  13.765500  -1.657910   4.065434   3.853795  -5.546119   7.928353   1.484304   1.930345  -0.856302   0.838415   3.777411   1.382141  -4.897688  10.062591  56.864234 179.863245  81.064461 -179.868591  -2.395930   0.297476  -3.433613  -3.928678 -13.605408   2.504793 -18.777176 -14.051711 -56.324019 -179.855739 -76.502873 -179.870739  -1.111340  -5.737278   8.263472  -5.751462  -4.955503 -26.848543  39.614141  -0.004012  -0.006650 -20.176541  -8.656876   0.838195  -9.435632  -0.049640  -0.052488 -13.530598  -8.129180  19.730985  26.215767   0.007126   0.012408  -2.684054  -7.740944  -6.881682 -12.678474  -0.001244   0.015088
 -1.618621   0.835524   4.156853  -5.016251   8.923493   4.605050  13.145086  -0.992591   3.933825   3.586099  -5.253837   7.766011   1.566339   1.475693  -0.743140   0.744946   4.011769   1.159253  -5.267024   9.865536  57.091251 179.840437  80.737775 -179.845804  -2.472228   0.239497  -3.594598  -3.731617 -13.604873   2.348452 -18.354161 -14.726394 -57.162283 -179.840388 -75.931356 -179.852758  -1.085923  -5.682438   7.882147  -4.396846  -5.737268 -26.925881  39.537638  -0.004026  -0.006645 -19.052193  -9.768592   0.563239 -12.039928  -0.054919  -0.073982 -14.324548  -8.829458  18.817973  26.027466   0.004385   0.006935  -2.738738  -8.577360  -6.563492 -11.431855   0.000641   0.023278
